<svg width="50" height="50" viewBox="0 0 50 50" fill="none" xmlns="http://www.w3.org/2000/svg">
<rect x="0.5" y="0.5" width="49" height="49" stroke="#70B0C4"/>
<path d="M31.4061 20.0341C32.2014 20.0341 32.8461 19.3893 32.8461 18.5941C32.8461 17.7988 32.2014 17.1541 31.4061 17.1541C30.6108 17.1541 29.9661 17.7988 29.9661 18.5941C29.9661 19.3893 30.6108 20.0341 31.4061 20.0341Z" fill="#70B0C4"/>
<path d="M24.9999 18.8379C23.7812 18.8379 22.5898 19.1993 21.5765 19.8764C20.5631 20.5535 19.7733 21.5158 19.3069 22.6418C18.8406 23.7678 18.7185 25.0067 18.9563 26.202C19.1941 27.3973 19.7809 28.4953 20.6427 29.3571C21.5045 30.2189 22.6024 30.8057 23.7977 31.0435C24.9931 31.2813 26.232 31.1592 27.358 30.6928C28.4839 30.2264 29.4463 29.4366 30.1234 28.4233C30.8005 27.41 31.1619 26.2186 31.1619 24.9999C31.1619 23.3656 30.5127 21.7983 29.3571 20.6427C28.2015 19.4871 26.6342 18.8379 24.9999 18.8379ZM24.9999 28.9999C24.2088 28.9999 23.4354 28.7653 22.7776 28.3258C22.1198 27.8862 21.6071 27.2615 21.3044 26.5306C21.0016 25.7997 20.9224 24.9955 21.0768 24.2195C21.2311 23.4436 21.6121 22.7309 22.1715 22.1715C22.7309 21.6121 23.4436 21.2311 24.2195 21.0767C24.9955 20.9224 25.7997 21.0016 26.5306 21.3044C27.2615 21.6071 27.8862 22.1198 28.3258 22.7776C28.7653 23.4354 28.9999 24.2088 28.9999 24.9999C28.9999 26.0608 28.5785 27.0782 27.8283 27.8283C27.0782 28.5785 26.0608 28.9999 24.9999 28.9999Z" fill="#70B0C4"/>
<path d="M25 15.162C28.204 15.162 28.584 15.174 29.849 15.232C30.6098 15.241 31.3635 15.3807 32.077 15.645C32.5947 15.8447 33.0648 16.1505 33.4571 16.5429C33.8495 16.9352 34.1553 17.4053 34.355 17.923C34.6193 18.6365 34.759 19.3902 34.768 20.151C34.826 21.416 34.838 21.796 34.838 25.001C34.838 28.206 34.826 28.584 34.768 29.849C34.759 30.6098 34.6193 31.3635 34.355 32.077C34.1553 32.5947 33.8495 33.0648 33.4571 33.4571C33.0648 33.8495 32.5947 34.1553 32.077 34.355C31.3635 34.6193 30.6098 34.759 29.849 34.768C28.584 34.826 28.204 34.838 25 34.838C21.796 34.838 21.416 34.826 20.151 34.768C19.3902 34.759 18.6365 34.6193 17.923 34.355C17.4053 34.1553 16.9352 33.8495 16.5429 33.4571C16.1505 33.0648 15.8447 32.5947 15.645 32.077C15.3807 31.3635 15.241 30.6098 15.232 29.849C15.174 28.584 15.162 28.204 15.162 25C15.162 21.796 15.174 21.416 15.232 20.151C15.241 19.3902 15.3807 18.6365 15.645 17.923C15.8447 17.4053 16.1505 16.9352 16.5429 16.5429C16.9352 16.1505 17.4053 15.8447 17.923 15.645C18.6365 15.3807 19.3902 15.241 20.151 15.232C21.416 15.174 21.796 15.162 25 15.162ZM25 13C21.741 13 21.332 13.014 20.052 13.072C19.0568 13.0921 18.0722 13.2808 17.14 13.63C16.3427 13.9383 15.6187 14.4098 15.0142 15.0142C14.4098 15.6187 13.9383 16.3427 13.63 17.14C13.2807 18.0725 13.092 19.0574 13.072 20.053C13.014 21.333 13 21.74 13 25C13 28.26 13.014 28.668 13.072 29.948C13.0921 30.9432 13.2808 31.9278 13.63 32.86C13.9383 33.6573 14.4098 34.3813 15.0142 34.9858C15.6187 35.5902 16.3427 36.0617 17.14 36.37C18.0725 36.7193 19.0574 36.908 20.053 36.928C21.333 36.986 21.741 37 25 37C28.259 37 28.668 36.986 29.948 36.928C30.9436 36.908 31.9285 36.7193 32.861 36.37C33.6583 36.0617 34.3823 35.5902 34.9868 34.9858C35.5912 34.3813 36.0627 33.6573 36.371 32.86C36.72 31.9275 36.9083 30.9425 36.928 29.947C36.986 28.667 37 28.26 37 25C37 21.74 36.986 21.332 36.928 20.052C36.9079 19.0568 36.7192 18.0722 36.37 17.14C36.0617 16.3427 35.5902 15.6187 34.9858 15.0142C34.3813 14.4098 33.6573 13.9383 32.86 13.63C31.9275 13.281 30.9425 13.0927 29.947 13.073C28.667 13.013 28.26 13 25 13Z" fill="#70B0C4"/>
</svg>
