<svg width="79" height="39" viewBox="0 0 79 39" fill="none" xmlns="http://www.w3.org/2000/svg">
<path d="M10.3892 2.50471C11.1047 3.09356 12.4629 3.91305 14.5839 4.04254V28.8681H1.85688V11.0275C2.68975 10.6129 3.45467 10.074 4.12535 9.42921C5.3541 8.24583 6.6925 6.23539 6.5942 3.1465L10.3854 2.50471H10.3892ZM10.8183 1.08691L5.16979 2.04629C6.12633 8.38761 0.53833 10.1523 0.53833 10.1523V30.1904H15.9072V2.70509C15.6492 2.72683 15.4015 2.73628 15.1652 2.73628C12.1349 2.73628 10.8221 1.08975 10.8221 1.08975L10.8183 1.08691Z" fill="#007A9B"/>
<path d="M25.4007 6.5389C25.6339 6.63279 25.8582 6.83947 26.0737 7.15895C26.3149 7.52588 26.5312 7.9086 26.7212 8.30452C26.9367 8.74561 27.167 9.21506 27.4121 9.71286C27.6524 10.2008 27.9269 10.6711 28.2335 11.1203C28.523 11.5476 28.8636 11.938 29.2477 12.2829C29.6136 12.6117 30.06 12.838 30.5416 12.9388C30.6678 12.9961 30.7996 13.0401 30.9348 13.0702C31.0691 13.0986 31.1362 13.1647 31.1362 13.2706C31.1362 13.3405 31.0842 13.4284 30.9783 13.5333C30.7738 13.5895 30.5617 13.6131 30.3498 13.6033C30.2326 13.6033 30.1163 13.5967 30 13.5853C29.8838 13.574 29.7836 13.5617 29.7023 13.5504C28.7117 13.3758 27.8812 12.9738 27.2108 12.3443C26.5313 11.7017 26.0078 10.9122 25.6805 10.0361C25.482 9.66308 25.2983 9.27839 25.1295 8.88204C24.9714 8.50619 24.7784 8.14606 24.5529 7.8064C24.3487 7.49945 24.0928 7.23019 23.7967 7.01055C23.4877 6.79347 23.1164 6.68298 22.7391 6.6958C22.5056 6.6958 22.361 6.74306 22.3109 6.83569C22.2608 6.92832 22.2315 7.11925 22.2315 7.39524V10.9983C22.2184 11.2315 22.2575 11.4646 22.3459 11.6808C22.4123 11.8224 22.5227 11.9387 22.6606 12.0125C22.8112 12.0879 22.9742 12.1353 23.1417 12.1524C23.3307 12.1764 23.5406 12.2113 23.7712 12.2573C23.8161 12.2728 23.8637 12.2789 23.9111 12.2753C23.9996 12.2745 24.0877 12.2863 24.1729 12.3103C24.2111 12.3196 24.2445 12.3425 24.2671 12.3747C24.2897 12.4068 24.2999 12.446 24.2958 12.4851C24.2958 12.6486 24.2372 12.7469 24.1209 12.7819C23.9493 12.8231 23.7728 12.8409 23.5963 12.8348C23.1767 12.8348 22.757 12.8144 22.3373 12.7734C21.9167 12.7328 21.5037 12.712 21.0954 12.712C20.7343 12.712 20.3751 12.7299 20.0197 12.7649C19.6643 12.7999 19.3061 12.8169 18.945 12.8169C18.8438 12.8259 18.7418 12.811 18.6473 12.7734C18.601 12.7441 18.5774 12.6486 18.5774 12.4851C18.5774 12.4454 18.5915 12.4069 18.6171 12.3765C18.6426 12.3461 18.6781 12.3257 18.7172 12.3188C18.8347 12.2844 18.9544 12.2582 19.0755 12.2403C19.221 12.2167 19.376 12.1902 19.5396 12.1609C19.7021 12.1322 19.8587 12.0763 20.0027 11.9955C20.1658 11.9095 20.3 11.7775 20.3885 11.6158C20.4771 11.4541 20.5162 11.2699 20.5008 11.0862V7.48315C20.5008 6.49258 20.5097 5.50737 20.5273 4.52752C20.5449 3.54767 20.5538 2.56277 20.5538 1.57284C20.565 1.38181 20.5161 1.19207 20.4139 1.0303C20.3245 0.905509 20.1992 0.810893 20.0547 0.759025C19.9054 0.706403 19.7495 0.674598 19.5915 0.664505C19.428 0.653163 19.274 0.640875 19.1284 0.629533C19.0063 0.622877 18.8858 0.599339 18.7702 0.559589C18.7266 0.545477 18.6891 0.517079 18.6637 0.478996C18.6384 0.440913 18.6266 0.395374 18.6303 0.349755C18.6303 0.186236 18.6908 0.0898261 18.8137 0.0605251C18.9376 0.0315673 19.0645 0.0169783 19.1917 0.0170461C19.3193 0.0170461 19.4507 0.0236624 19.5849 0.0350047C19.7192 0.0463471 19.8496 0.0520183 19.9781 0.0520183H21.4999C21.941 0.0520183 22.3868 0.0431966 22.8374 0.0255529C23.2879 0.00790927 23.7337 -0.000597538 24.1748 3.25928e-05C24.5927 0.00374468 25.0089 0.0535104 25.4158 0.148428C25.8607 0.248199 26.2823 0.432374 26.6578 0.690971C27.0546 0.96608 27.3836 1.32774 27.62 1.74864C27.8759 2.18974 28.0041 2.75496 28.0047 3.44433C28.0072 3.80449 27.9264 4.16034 27.7684 4.48404C27.6116 4.80336 27.4048 5.09563 27.156 5.34984C26.9031 5.60826 26.6215 5.83691 26.3166 6.03133C26.0234 6.22148 25.7174 6.39107 25.4007 6.5389ZM26.223 3.39139C26.2323 2.97051 26.1548 2.55223 25.9953 2.16264C25.8542 1.82709 25.6424 1.52595 25.3743 1.27983C25.1038 1.03591 24.7854 0.851122 24.4395 0.737285C24.0559 0.611308 23.6541 0.549356 23.2504 0.553917C22.8421 0.553917 22.574 0.626698 22.446 0.772258C22.3181 0.917818 22.2551 1.13049 22.257 1.41026V2.00952C22.257 2.47645 22.251 3.00103 22.239 3.58327C22.2271 4.16551 22.2214 4.69009 22.222 5.15702C22.222 5.33188 22.222 5.48122 22.2135 5.60315C22.2049 5.70654 22.2168 5.81062 22.2485 5.9094C22.2643 5.9512 22.2896 5.98876 22.3224 6.01911C22.3552 6.04945 22.3946 6.07176 22.4375 6.08426C22.5886 6.12551 22.7452 6.14305 22.9016 6.13624C23.3412 6.13855 23.78 6.10058 24.2126 6.02282C24.5915 5.95951 24.9527 5.81646 25.2722 5.60315C25.5763 5.39106 25.8178 5.10119 25.9716 4.76382C26.1392 4.40843 26.223 3.95095 26.223 3.39139Z" fill="black"/>
<path d="M41.3131 7.41309C41.3196 7.53369 41.2955 7.65398 41.2431 7.76281C41.1815 7.77325 41.1193 7.7805 41.0569 7.78455C40.9957 7.79086 40.9342 7.79401 40.8726 7.794H36.52C36.4602 7.79637 36.4012 7.80817 36.3451 7.82897C36.3101 7.82897 36.2865 7.87529 36.2752 7.96886C36.2629 8.06288 36.2569 8.15761 36.2572 8.25242V8.39231C36.267 8.85147 36.3233 9.30846 36.4254 9.75623C36.5136 10.161 36.6768 10.5457 36.9066 10.8905C37.1288 11.2184 37.4293 11.4858 37.7809 11.6684C38.1419 11.8612 38.5906 11.9576 39.1268 11.9576C39.3234 11.9597 39.5198 11.942 39.7128 11.9047C39.8761 11.8717 40.0348 11.819 40.1854 11.7478C40.3384 11.6732 40.4846 11.5853 40.6221 11.485C40.7677 11.3804 40.928 11.2638 41.1032 11.1353C41.1478 11.1183 41.1958 11.1125 41.2431 11.1183C41.3244 11.1183 41.365 11.1532 41.365 11.2232C41.3555 11.3062 41.3228 11.3848 41.2705 11.45C41.2031 11.5488 41.1299 11.6435 41.0512 11.7336C40.9714 11.8255 40.8868 11.9132 40.7979 11.9963C40.711 12.0776 40.6429 12.1362 40.5966 12.1712C40.2843 12.4445 39.9301 12.6657 39.5474 12.8262C39.1617 12.9687 38.7525 13.037 38.3414 13.0276C37.8426 13.0393 37.3472 12.9426 36.8895 12.744C36.4789 12.5583 36.1147 12.2835 35.8234 11.9396C35.5276 11.5868 35.303 11.1802 35.1617 10.7421C35.0044 10.2657 34.9206 9.7682 34.9131 9.26662C34.9021 8.70857 34.9547 8.15108 35.07 7.60496C35.1763 7.07202 35.3715 6.56077 35.6476 6.09265C35.9116 5.64829 36.2749 5.27108 36.709 4.99055C37.1457 4.7051 37.6731 4.56238 38.2913 4.56238C38.9907 4.56238 39.5893 4.71109 40.0871 5.00851C40.5849 5.30593 40.9375 5.80436 41.1448 6.50381C41.1906 6.65325 41.2285 6.80501 41.2582 6.95845C41.2848 7.10888 41.3031 7.26065 41.3131 7.41309ZM39.8612 6.5558C39.861 6.35621 39.8161 6.15921 39.7299 5.97923C39.646 5.79733 39.5308 5.63161 39.3896 5.48961C39.2506 5.35062 39.0876 5.2379 38.9085 5.15691C38.7356 5.07736 38.5477 5.03579 38.3574 5.03498C38.1072 5.03645 37.8611 5.09942 37.641 5.21834C37.4073 5.34103 37.1971 5.50389 37.02 5.69945C36.8396 5.89749 36.6948 6.12516 36.5918 6.37243C36.4901 6.60703 36.4364 6.85965 36.434 7.11535C36.434 7.16261 36.4718 7.1938 36.5474 7.20987C36.6338 7.22905 36.7217 7.24075 36.8101 7.24484C36.9062 7.25052 37.0024 7.25052 37.0984 7.24484C37.1929 7.23917 37.2497 7.23634 37.2733 7.23634C37.5991 7.23634 37.8703 7.23917 38.0871 7.24484C38.3039 7.25051 38.5692 7.24138 38.883 7.21743C39.0228 7.20609 39.1514 7.19475 39.2677 7.18246C39.3725 7.17361 39.4756 7.15006 39.5739 7.11252C39.6622 7.07625 39.736 7.01177 39.7837 6.92915C39.8421 6.81374 39.8689 6.68491 39.8612 6.5558Z" fill="black"/>
<path d="M48.6393 4.44055C48.6667 4.4433 48.6929 4.45265 48.7158 4.4678C48.7387 4.48295 48.7575 4.50344 48.7707 4.52751C48.8039 4.56746 48.8252 4.61593 48.8322 4.6674C48.8318 4.71458 48.8258 4.76155 48.8142 4.80729C48.803 4.85308 48.7973 4.90004 48.7972 4.94718V5.89237L48.8322 5.91033C48.8857 5.88559 48.9333 5.84984 48.9721 5.80541C49.3477 5.4817 49.7513 5.19197 50.1781 4.93962C50.6097 4.69442 51.0996 4.57063 51.5959 4.58139C51.9956 4.5679 52.3932 4.64547 52.7585 4.80823C53.0547 4.94909 53.3103 5.16275 53.5014 5.42923C53.6967 5.71264 53.828 6.03517 53.8861 6.37442C53.9581 6.76377 53.9932 7.15903 53.991 7.55497C53.991 7.78812 53.9854 8.01528 53.974 8.23646C53.9617 8.45858 53.9561 8.68543 53.9561 8.91889V11.4709C53.9561 11.8666 54.0726 12.1114 54.3058 12.2053C54.5801 12.3058 54.871 12.3532 55.1631 12.3452C55.1881 12.3432 55.2131 12.3499 55.2338 12.3642C55.2545 12.3785 55.2696 12.3995 55.2765 12.4237C55.2945 12.4773 55.3034 12.5335 55.303 12.59C55.3028 12.6379 55.2939 12.6853 55.2765 12.7299C55.2595 12.7762 55.2094 12.7999 55.1281 12.7999C54.9674 12.8002 54.8067 12.7913 54.647 12.7734C54.4872 12.7559 54.3266 12.7471 54.1659 12.7469H52.854C52.7595 12.7469 52.6649 12.7469 52.5704 12.7564C52.4759 12.7658 52.3814 12.7706 52.2869 12.7819C52.1923 12.7932 52.0978 12.8027 52.0033 12.8084C51.9088 12.814 51.8143 12.8169 51.7197 12.8169C51.6172 12.8143 51.515 12.8058 51.4135 12.7914C51.2793 12.7737 51.2122 12.7107 51.2122 12.6023C51.2074 12.5533 51.2184 12.5041 51.2436 12.4618C51.2688 12.4194 51.3067 12.3862 51.3521 12.367C51.4609 12.3213 51.5759 12.2917 51.6933 12.2791C51.8275 12.2611 51.9617 12.2384 52.0959 12.2091C52.2243 12.1829 52.339 12.1114 52.4192 12.0078C52.5196 11.8705 52.5744 11.7052 52.5761 11.5352C52.5874 11.3367 52.594 11.1675 52.594 11.0276C52.6054 10.7718 52.6111 10.5197 52.6111 10.2715V8.02473C52.6115 7.72709 52.597 7.42961 52.5676 7.13341C52.5442 6.86374 52.4732 6.60036 52.3577 6.35552C52.2474 6.12828 52.0746 5.93715 51.8596 5.80447C51.6375 5.66458 51.3407 5.59464 50.9674 5.59464C50.7207 5.59124 50.4753 5.62959 50.2414 5.70806C50.0091 5.7914 49.784 5.89383 49.5685 6.0143C49.4639 6.0729 49.3328 6.14852 49.1753 6.24115C49.0394 6.31273 48.9272 6.42203 48.852 6.5559C48.8216 6.66153 48.8011 6.76974 48.7906 6.87916C48.7726 7.02566 48.7584 7.19202 48.7471 7.37822C48.7358 7.56442 48.7291 7.7563 48.7291 7.95479V11.3651C48.7251 11.5712 48.7855 11.7734 48.9021 11.9435C48.9518 12.0211 49.017 12.0876 49.0936 12.1389C49.1702 12.1901 49.2566 12.225 49.3473 12.2413C49.5126 12.2645 49.6794 12.2761 49.8464 12.2762C49.9433 12.2761 50.0394 12.2937 50.1299 12.3282C50.1999 12.3522 50.2348 12.4152 50.2348 12.5173C50.2378 12.5551 50.2332 12.5932 50.2212 12.6293C50.2092 12.6653 50.19 12.6986 50.1649 12.7271C50.1031 12.7511 50.04 12.7716 49.9759 12.7885C49.9093 12.7962 49.8424 12.799 49.7755 12.797C49.5228 12.7972 49.2703 12.7827 49.0193 12.7535C48.7756 12.7242 48.5304 12.7093 48.2849 12.7091C47.9901 12.7089 47.6954 12.7237 47.4021 12.7535C47.1185 12.7819 46.8217 12.797 46.5193 12.797C46.4383 12.7991 46.3579 12.7843 46.283 12.7535C46.22 12.7239 46.1884 12.6568 46.1884 12.5522C46.1906 12.5156 46.2033 12.4803 46.2251 12.4508C46.2469 12.4212 46.2769 12.3987 46.3113 12.3859C46.4062 12.3404 46.5057 12.3052 46.6081 12.281C46.7236 12.252 46.8375 12.217 46.9493 12.176C47.0469 12.1438 47.1343 12.0864 47.2026 12.0097C47.3092 11.8506 47.3742 11.6673 47.3917 11.4766C47.418 11.2823 47.4325 11.0866 47.4352 10.8906V7.29032C47.439 7.04962 47.4155 6.80927 47.3652 6.57386C47.3561 6.5145 47.3351 6.45758 47.3036 6.40645C47.2722 6.35531 47.2307 6.311 47.1819 6.27612C47.0846 6.20741 46.9788 6.1518 46.8671 6.11071C46.7556 6.06912 46.6563 6.03415 46.5694 6.00485C46.4824 5.97555 46.438 5.9264 46.438 5.85645V5.82148C46.485 5.73862 46.5495 5.66702 46.627 5.61165C46.6733 5.57668 46.799 5.49539 47.0051 5.36684C47.2112 5.2383 47.4314 5.10786 47.6667 4.97364C47.9021 4.83942 48.1204 4.71749 48.3133 4.60691C48.4154 4.53954 48.5248 4.48375 48.6393 4.44055Z" fill="black"/>
<path d="M66.3183 7.41319C66.3248 7.53379 66.3007 7.65408 66.2483 7.76291C66.1877 7.77452 66.1265 7.78304 66.065 7.78843C66.0022 7.7949 65.9391 7.79806 65.8759 7.79788H61.5271C61.4673 7.80025 61.4083 7.81205 61.3522 7.83286C61.3173 7.83286 61.2936 7.87917 61.2823 7.97275C61.27 8.06676 61.264 8.16149 61.2643 8.2563V8.39619C61.2739 8.85526 61.3297 9.31219 61.4307 9.76011C61.5189 10.1649 61.682 10.5496 61.9118 10.8943C62.134 11.2223 62.4345 11.4897 62.7861 11.6722C63.1472 11.8651 63.5958 11.9615 64.1321 11.9615C64.3287 11.9636 64.525 11.9459 64.7181 11.9085C64.8814 11.8756 65.0401 11.8229 65.1907 11.7516C65.3437 11.6771 65.4898 11.5891 65.6274 11.4889C65.7729 11.3843 65.9333 11.2677 66.1085 11.1392C66.153 11.1222 66.201 11.1164 66.2483 11.1221C66.3296 11.1221 66.3703 11.1571 66.3703 11.2271C66.3608 11.3101 66.328 11.3887 66.2758 11.4539C66.2083 11.5527 66.1351 11.6474 66.0565 11.7375C65.9769 11.8296 65.8923 11.9173 65.8032 12.0002C65.7391 12.0619 65.6719 12.1203 65.6018 12.1751C65.2896 12.4484 64.9353 12.6695 64.5527 12.8301C64.1669 12.9727 63.7577 13.041 63.3466 13.0314C62.8478 13.0432 62.3525 12.9465 61.8948 12.7479C61.4841 12.5622 61.1199 12.2874 60.8286 11.9435C60.5329 11.5907 60.3082 11.1841 60.167 10.746C60.0116 10.2715 59.9291 9.77628 59.9222 9.27712C59.9111 8.71907 59.9637 8.16158 60.0791 7.61546C60.1853 7.08252 60.3805 6.57127 60.6566 6.10315C60.9198 5.65941 61.2817 5.28229 61.7142 5.00105C62.1515 4.7156 62.679 4.57288 63.2965 4.57288C63.9959 4.57288 64.5946 4.72159 65.0924 5.01901C65.5902 5.31643 65.9427 5.81486 66.15 6.51431C66.1958 6.66375 66.2337 6.81551 66.2635 6.96895C66.2897 7.11594 66.308 7.26423 66.3183 7.41319ZM64.8665 6.5559C64.8661 6.35643 64.8216 6.15953 64.736 5.97933C64.6515 5.79759 64.5361 5.63192 64.3948 5.48972C64.2558 5.35072 64.0928 5.238 63.9137 5.15701C63.7408 5.07746 63.5529 5.03589 63.3627 5.03508C63.1124 5.03655 62.8664 5.09952 62.6462 5.21844C62.4126 5.34113 62.2024 5.50399 62.0252 5.69955C61.8449 5.8976 61.7 6.12526 61.597 6.37253C61.4953 6.60713 61.4416 6.85975 61.4392 7.11545C61.4392 7.16271 61.477 7.1939 61.5536 7.20997C61.6396 7.22924 61.7272 7.24095 61.8154 7.24495C61.9098 7.25043 62.0045 7.25043 62.0989 7.24495C62.1935 7.23927 62.2502 7.23644 62.2738 7.23644C62.6002 7.23644 62.8715 7.23927 63.0876 7.24495C63.3037 7.25062 63.5687 7.24179 63.8825 7.21848C64.0224 7.20714 64.151 7.19579 64.2672 7.18351C64.3721 7.17477 64.4752 7.15122 64.5735 7.11356C64.662 7.0778 64.736 7.01319 64.7833 6.93019C64.8438 6.81504 64.8725 6.68584 64.8665 6.5559Z" fill="black"/>
<path d="M77.8413 7.41319C77.8478 7.53379 77.8237 7.65409 77.7714 7.76291C77.6504 7.78517 77.5277 7.79687 77.4046 7.79788H73.0501C72.9903 7.80025 72.9313 7.81205 72.8753 7.83286C72.8403 7.83286 72.8167 7.87917 72.8053 7.97275C72.7938 8.06683 72.7882 8.16153 72.7883 8.25631V8.39619C72.7974 8.85529 72.8532 9.31227 72.9546 9.76011C73.0425 10.1648 73.2054 10.5495 73.4348 10.8943C73.6573 11.2221 73.9577 11.4894 74.3091 11.6722C74.6702 11.8651 75.1191 11.9615 75.656 11.9615C75.8526 11.9636 76.049 11.9459 76.242 11.9085C76.4054 11.8757 76.5641 11.823 76.7146 11.7516C76.8678 11.6769 77.0143 11.589 77.1523 11.4889C77.2978 11.3843 77.4579 11.2677 77.6324 11.1392C77.677 11.1224 77.725 11.1166 77.7723 11.1221C77.8536 11.1221 77.8952 11.1571 77.8952 11.2271C77.886 11.3101 77.8532 11.3889 77.8007 11.4539C77.7336 11.5527 77.6607 11.6474 77.5823 11.7375C77.5001 11.832 77.416 11.9189 77.329 12.0002C77.2421 12.0815 77.174 12.1401 77.1277 12.1751C76.8151 12.448 76.4609 12.6691 76.0785 12.8301C75.6924 12.9726 75.2829 13.0409 74.8715 13.0314C74.373 13.0432 73.878 12.9465 73.4206 12.7479C73.0098 12.5619 72.6454 12.2872 72.3535 11.9435C72.0581 11.5905 71.8335 11.1839 71.6919 10.746C71.537 10.2714 71.4544 9.77624 71.4471 9.27712C71.4363 8.71903 71.4893 8.16155 71.6049 7.61546C71.7109 7.08257 71.9058 6.57132 72.1815 6.10315C72.445 5.65937 72.8073 5.28226 73.2401 5.00105C73.6768 4.7156 74.2042 4.57288 74.8224 4.57288C75.5218 4.57288 76.1204 4.72159 76.6182 5.01901C77.116 5.31643 77.4686 5.81486 77.6759 6.51431C77.722 6.66374 77.7602 6.81549 77.7903 6.96895C77.8152 7.11601 77.8323 7.2643 77.8413 7.41319ZM76.3904 6.5559C76.3902 6.35631 76.3453 6.15931 76.2591 5.97933C76.1749 5.79739 76.0594 5.63167 75.9178 5.48972C75.7792 5.35073 75.6165 5.23801 75.4377 5.15701C75.2648 5.07757 75.0769 5.036 74.8866 5.03508C74.6361 5.03667 74.3898 5.09962 74.1692 5.21844C73.9359 5.34114 73.726 5.504 73.5492 5.69955C73.3682 5.89731 73.223 6.12503 73.1201 6.37253C73.0186 6.60718 72.9652 6.85981 72.9632 7.11545C72.9632 7.16271 73.001 7.1939 73.0766 7.20997C73.163 7.22922 73.2509 7.24092 73.3393 7.24495C73.4354 7.25062 73.5316 7.25062 73.6276 7.24495C73.7222 7.23927 73.7789 7.23644 73.8025 7.23644C74.1283 7.23644 74.3992 7.23927 74.6154 7.24495C74.8315 7.25062 75.0968 7.24179 75.4112 7.21848C75.5511 7.20714 75.6787 7.19579 75.7959 7.18351C75.9008 7.17466 76.0039 7.15111 76.1022 7.11356C76.1902 7.07845 76.2643 7.01535 76.3129 6.93398C76.3717 6.81701 76.3984 6.68656 76.3904 6.5559Z" fill="black"/>
<path d="M30.052 17.52C29.958 17.8057 29.9021 18.1025 29.8857 18.4028C29.8567 18.7702 29.8217 19.1287 29.7808 19.4785C29.7482 19.7859 29.6897 20.0901 29.6059 20.3877C29.5303 20.6439 29.4055 20.7724 29.2278 20.7724C29.0889 20.7724 29.0067 20.7167 28.984 20.6061C28.9596 20.4675 28.9565 20.326 28.9745 20.1864C28.9925 20.0172 29.0067 19.8339 29.0189 19.6354C29.0314 19.4446 29.0014 19.2535 28.931 19.0758C28.862 18.925 28.7408 18.8042 28.5898 18.7355C28.3996 18.6422 28.1963 18.5784 27.9868 18.5465C27.7409 18.5042 27.4929 18.4752 27.2439 18.4595C26.9811 18.4419 26.7335 18.4331 26.5009 18.4331C26.3261 18.4331 26.1682 18.4331 26.0283 18.4416C25.8885 18.4501 25.7722 18.4501 25.6786 18.4501C25.585 18.4501 25.5217 18.4501 25.4518 18.4416C25.4178 18.4386 25.3835 18.4434 25.3516 18.4555C25.3197 18.4676 25.2909 18.4868 25.2675 18.5115C25.2014 18.593 25.1592 18.6911 25.1455 18.7951C25.1112 18.9942 25.0966 19.1962 25.102 19.3981L25.0671 21.5314C25.0438 22.5579 25.0466 23.5838 25.0756 24.609C25.1046 25.6342 25.1074 26.6601 25.0841 27.6865C25.0841 27.8756 25.0869 28.0621 25.0926 28.2461C25.0985 28.4339 25.1191 28.621 25.154 28.8057C25.2126 29.1327 25.3585 29.3513 25.5917 29.4616C25.8231 29.5719 26.0713 29.6428 26.3261 29.6714L27.0161 29.7499C27.2202 29.7735 27.3223 29.8548 27.3223 29.9947C27.3223 30.1837 27.2817 30.283 27.2004 30.2924C27.0843 30.3056 26.9675 30.3113 26.8507 30.3095C26.3837 30.3095 25.9203 30.295 25.4603 30.266C25.0003 30.237 24.5368 30.2225 24.0699 30.2225C23.6502 30.2225 23.2334 30.237 22.8194 30.266C22.4054 30.295 21.9889 30.3095 21.5699 30.3095C21.4732 30.3093 21.3766 30.3036 21.2806 30.2924C21.1814 30.2802 21.1322 30.2102 21.1322 30.0826C21.1252 30.0264 21.1369 29.9693 21.1654 29.9203C21.1939 29.8713 21.2377 29.833 21.2901 29.8113C21.3959 29.7704 21.5084 29.7495 21.6218 29.7499C21.6982 29.7523 21.7745 29.7466 21.8496 29.7329C22.1272 29.7111 22.4006 29.6523 22.6625 29.558C22.8464 29.4911 23.0072 29.3726 23.1256 29.2168C23.238 29.0522 23.3099 28.8634 23.3355 28.6658C23.3737 28.3937 23.3911 28.1191 23.3875 27.8444V19.3735C23.3875 19.3149 23.3846 19.2072 23.379 19.0503C23.3775 18.9418 23.369 18.8335 23.3534 18.7261C23.3301 18.6215 23.1959 18.5487 22.9508 18.5077C22.6908 18.4657 22.4278 18.4452 22.1644 18.4463H21.0821C20.8184 18.4456 20.5559 18.4838 20.3033 18.5597C20.0299 18.65 19.7814 18.8027 19.5774 19.0059C19.4858 19.1178 19.4095 19.2415 19.3505 19.3735C19.256 19.5626 19.1615 19.7516 19.0537 19.9596C18.946 20.1675 18.8458 20.3471 18.7475 20.5097C18.6492 20.6722 18.5755 20.7545 18.5292 20.7545C18.4362 20.7616 18.3435 20.737 18.2664 20.6845C18.2333 20.6502 18.2082 20.6088 18.1932 20.5635C18.1781 20.5182 18.1734 20.4701 18.1794 20.4227C18.1913 20.1525 18.2383 19.8849 18.3193 19.6269C18.4336 19.1648 18.5095 18.694 18.5462 18.2195C18.5575 18.0909 18.5698 17.9539 18.5811 17.8083C18.5903 17.6744 18.6166 17.5422 18.6596 17.4151C18.6981 17.3064 18.7631 17.2089 18.8486 17.1315C18.946 17.0495 19.0714 17.0085 19.1984 17.0172C19.2285 17.0182 19.2579 17.0268 19.2838 17.0421C19.3097 17.0575 19.3314 17.0791 19.3468 17.1051C19.3874 17.1637 19.4413 17.2298 19.4951 17.3064C19.5627 17.3905 19.6423 17.4641 19.7314 17.5247C19.8547 17.6023 19.997 17.6445 20.1426 17.6467C20.8421 17.682 21.5588 17.7084 22.2929 17.7261C23.027 17.7437 23.7441 17.7522 24.4442 17.7516C25.0037 17.7516 25.5428 17.7459 26.0614 17.7346C26.58 17.7232 27.1191 17.7172 27.6787 17.7166C27.8532 17.7166 28.0309 17.7138 28.2117 17.7081C28.3904 17.7028 28.5686 17.6883 28.7458 17.6646C28.8749 17.6461 28.9962 17.5914 29.0955 17.5068C29.1851 17.4254 29.2659 17.3348 29.3365 17.2365C29.4065 17.1419 29.4641 17.0588 29.5104 16.9831C29.5244 16.9519 29.5463 16.9249 29.574 16.9048C29.6017 16.8847 29.6343 16.8723 29.6683 16.8688C29.8668 16.8688 29.9915 16.9453 30.0464 17.0966C30.0981 17.2326 30.1001 17.3826 30.052 17.52Z" fill="black"/>
<path d="M38.4983 23.5354C38.4985 23.6646 38.4748 23.7928 38.4284 23.9135C38.3863 24.0298 38.3098 24.1307 38.2091 24.2027C38.0973 24.2758 37.9641 24.3091 37.831 24.2972C37.639 24.275 37.4572 24.199 37.3064 24.0779C37.2589 24.0493 37.2177 24.0113 37.1852 23.9663C37.1527 23.9213 37.1297 23.8702 37.1174 23.8161C37.0881 23.6998 37.056 23.5826 37.0229 23.4664C36.9913 23.3581 36.9441 23.2549 36.883 23.1601C36.8461 23.1132 36.7978 23.0765 36.7427 23.0535C36.6876 23.0305 36.6276 23.022 36.5682 23.0288C36.3289 23.0276 36.0914 23.0721 35.8688 23.1601C35.6563 23.2428 35.4562 23.3545 35.2743 23.4919C35.1063 23.6187 34.9639 23.7761 34.8546 23.956C34.7544 24.1128 34.6997 24.2945 34.6968 24.4806V28.7292C34.6988 28.8059 34.708 28.8821 34.7242 28.957C34.7384 29.1299 34.8043 29.2946 34.9132 29.4296C35.0096 29.5449 35.1325 29.6351 35.2714 29.6924C35.4189 29.7528 35.5755 29.7882 35.7346 29.7973C35.9038 29.8086 36.0701 29.8143 36.2327 29.8143C36.3386 29.8143 36.3906 29.9192 36.3906 30.1291C36.3953 30.1612 36.3884 30.1939 36.3711 30.2213C36.3537 30.2487 36.3271 30.269 36.296 30.2784C36.2363 30.2948 36.1746 30.3034 36.1127 30.3039C35.823 30.3042 35.5337 30.284 35.2469 30.2434C34.9604 30.2021 34.6714 30.1816 34.382 30.182C34.0546 30.1817 33.7276 30.2022 33.4028 30.2434C33.0776 30.2838 32.7503 30.304 32.4226 30.3039C32.3359 30.3007 32.2503 30.2831 32.1693 30.2519C32.1243 30.2393 32.085 30.2115 32.0579 30.1733C32.0309 30.1351 32.0179 30.0888 32.0209 30.0421C32.0172 29.9904 32.0332 29.9392 32.0656 29.8987C32.098 29.8583 32.1445 29.8315 32.1958 29.8238C32.312 29.7945 32.4406 29.7652 32.5805 29.7359C32.7237 29.7055 32.862 29.6556 32.9916 29.5875C33.0627 29.5452 33.1227 29.4866 33.1667 29.4166C33.2108 29.3466 33.2376 29.2672 33.2449 29.1848C33.291 28.9541 33.3204 28.7203 33.3328 28.4854C33.3442 28.2529 33.3499 28.0197 33.3499 27.7859C33.3499 27.3316 33.347 26.9119 33.3413 26.5269C33.3347 26.1422 33.3328 25.7226 33.3328 25.2679C33.3328 25.1167 33.3328 24.9598 33.3234 24.7953C33.3194 24.6393 33.2874 24.4853 33.2289 24.3407C33.1925 24.2166 33.119 24.1068 33.0181 24.0259C32.9299 23.961 32.8367 23.9031 32.7393 23.853C32.6514 23.8067 32.5701 23.7584 32.4945 23.7131C32.4574 23.6912 32.4261 23.6607 32.4032 23.6241C32.3804 23.5876 32.3666 23.5462 32.3631 23.5032C32.3871 23.4441 32.4304 23.3948 32.4859 23.3634C32.5436 23.3284 32.5965 23.2991 32.6429 23.2755C32.7591 23.2178 32.8725 23.1592 32.9841 23.1006C33.0956 23.042 33.2081 22.9787 33.3253 22.9116C33.4227 22.8555 33.5159 22.7923 33.6041 22.7225L33.9198 22.4777C34.0207 22.3992 34.1257 22.3263 34.2346 22.2594C34.3203 22.2025 34.4168 22.1639 34.5181 22.1459C34.5322 22.1403 34.5475 22.1381 34.5626 22.1395C34.5778 22.141 34.5923 22.1461 34.6051 22.1545C34.6271 22.171 34.6505 22.1855 34.675 22.1979C34.7035 22.2646 34.7211 22.3355 34.727 22.4078C34.7398 22.5122 34.7458 22.6173 34.745 22.7225V23.2651C34.7563 23.2187 34.8395 23.1365 34.9898 23.0203C35.1729 22.8835 35.3659 22.7606 35.5673 22.6526C35.8142 22.5184 36.0715 22.4043 36.3367 22.3114C36.606 22.2146 36.8898 22.1644 37.176 22.163C37.3961 22.1551 37.6149 22.2001 37.814 22.2943C37.973 22.3742 38.1129 22.4874 38.2242 22.6261C38.328 22.7577 38.4027 22.9097 38.4435 23.0722C38.4801 23.2239 38.4985 23.3794 38.4983 23.5354Z" fill="black"/>
<path d="M49.5836 28.9381C49.5751 28.9913 49.5638 29.044 49.5495 29.096C49.4638 29.457 49.2532 29.776 48.955 29.9968C48.6582 30.2214 48.2951 30.3411 47.9228 30.337C47.5385 30.337 47.2354 30.2148 47.0136 29.9703C46.7864 29.7154 46.6242 29.4092 46.541 29.078C46.4007 29.2652 46.2392 29.4355 46.0599 29.5856C45.8612 29.7532 45.6477 29.9022 45.4219 30.0308C45.1927 30.1631 44.9492 30.2687 44.6959 30.3455C44.461 30.4194 44.2163 30.458 43.97 30.4599C43.3758 30.4599 42.959 30.2879 42.7195 29.9438C42.4801 29.5998 42.3607 29.1656 42.3613 28.6413C42.3596 28.391 42.4294 28.1454 42.5626 27.9334C42.6999 27.7128 42.8708 27.5151 43.0693 27.3474C43.2728 27.1725 43.4947 27.0201 43.7309 26.8927C43.9489 26.7741 44.1739 26.669 44.4048 26.578C44.8119 26.4267 45.1818 26.2957 45.5145 26.1848C45.8472 26.0739 46.2231 25.9658 46.6421 25.8606V24.5146C46.6421 24.025 46.552 23.6315 46.3718 23.3341C46.1916 23.0366 45.839 22.8879 45.3141 22.8879C45.0231 22.8744 44.7336 22.9377 44.4748 23.0713C44.1118 23.2744 43.841 23.6095 43.7186 24.007C43.6723 24.1706 43.6373 24.2906 43.6137 24.3747C43.5493 24.5697 43.4198 24.7365 43.247 24.8473C43.0672 24.9721 42.8533 25.0381 42.6345 25.0364C42.5825 25.0435 42.5297 25.0301 42.4874 24.9991C42.4451 24.968 42.4165 24.9218 42.4076 24.87C42.3853 24.7694 42.3736 24.6668 42.3727 24.5638C42.3727 24.284 42.4892 23.9957 42.7224 23.6989C42.9705 23.3859 43.2584 23.1067 43.5787 22.8681C43.9202 22.6137 44.2932 22.4046 44.6884 22.2461C45.03 22.0947 45.398 22.0116 45.7716 22.0013C45.8741 22.003 45.9764 22.0115 46.0778 22.0269C46.2007 22.0448 46.3255 22.0656 46.4559 22.0883C46.58 22.1109 46.7027 22.1403 46.8236 22.1762C46.9209 22.2032 47.0157 22.2383 47.1071 22.2811C47.4915 22.4796 47.7303 22.7389 47.8236 23.059C47.9183 23.4079 47.9631 23.7685 47.9569 24.1299C47.9569 24.571 47.9512 25.0401 47.9399 25.5373C47.9285 26.0345 47.9225 26.5036 47.9219 26.9447C47.9219 27.0496 47.9219 27.2046 47.9134 27.4079C47.9049 27.6111 47.9068 27.8219 47.9134 28.0374C47.92 28.2529 47.9304 28.457 47.9484 28.6498C47.9498 28.7864 47.9821 28.9208 48.0429 29.0431C48.0881 29.1241 48.1635 29.1839 48.2527 29.2094C48.3444 29.2386 48.4401 29.2533 48.5363 29.2529C48.6445 29.2572 48.7523 29.2361 48.851 29.1914C48.927 29.1545 48.9976 29.1075 49.0609 29.0516C49.1185 28.9996 49.1714 28.9504 49.2178 28.9032C49.2603 28.8588 49.3154 28.8285 49.3756 28.8162C49.5146 28.7812 49.5836 28.8219 49.5836 28.9381ZM46.6336 26.6886C46.6296 26.6153 46.621 26.5424 46.6081 26.4702C46.5032 26.4939 46.3803 26.525 46.2404 26.5647C46.1005 26.6044 45.9568 26.6527 45.8122 26.7046C45.6676 26.7566 45.5287 26.8096 45.3926 26.8625C45.2564 26.9154 45.1392 26.957 45.0343 26.9939C44.7183 27.1108 44.4253 27.2823 44.1685 27.5005C44.0404 27.6065 43.9383 27.7404 43.87 27.8919C43.8017 28.0435 43.769 28.2086 43.7744 28.3748C43.7627 28.6603 43.8425 28.9422 44.0022 29.1792C44.1534 29.389 44.4159 29.4939 44.7895 29.4939C45.0479 29.4904 45.3021 29.4276 45.5324 29.3105C45.7649 29.2009 45.9753 29.0497 46.1534 28.8644C46.2693 28.7404 46.369 28.6022 46.4502 28.4532C46.5407 28.313 46.6003 28.1551 46.6251 27.9901C46.6235 27.9348 46.6263 27.8795 46.6336 27.8247C46.6381 27.8045 46.6409 27.7839 46.6421 27.7633V26.9939C46.6446 26.8804 46.6418 26.7787 46.6336 26.6886Z" fill="black"/>
<path d="M55.9665 22.6081C55.9665 23.6573 55.9636 24.6919 55.958 25.7121C55.9523 26.7323 55.9491 27.767 55.9485 28.8161C55.9485 29.1892 55.94 29.5739 55.923 29.9702C55.906 30.3666 55.8745 30.7513 55.8285 31.1243C55.7497 31.8235 55.4769 32.4868 55.0411 33.0393C54.6077 33.5823 54.1002 34.0618 53.5335 34.4637C53.4467 34.5298 53.3565 34.5914 53.2632 34.648C53.1729 34.7122 53.0673 34.7513 52.957 34.7614H52.922C52.8984 34.7142 52.8785 34.6669 52.8605 34.63C52.8421 34.5875 52.8154 34.5489 52.7821 34.5166C52.8052 34.4692 52.8344 34.425 52.869 34.3852C52.904 34.3446 52.939 34.3002 52.974 34.2538C53.1725 34.0201 53.3678 33.7957 53.56 33.5809C53.7602 33.3541 53.9334 33.1047 54.0761 32.8379C54.2349 32.5342 54.3525 32.2106 54.4258 31.8757C54.4962 31.5446 54.543 31.2088 54.5657 30.871C54.5884 30.5269 54.5978 30.1829 54.5921 29.8388C54.5865 29.4948 54.5827 29.1545 54.5827 28.8161C54.5827 28.186 54.5858 27.5537 54.5921 26.9191C54.5984 26.2846 54.6013 25.6519 54.6006 25.0212C54.6006 24.8936 54.6007 24.7272 54.5921 24.5231C54.596 24.3635 54.5637 24.2052 54.4976 24.0599C54.4381 23.9308 54.3364 23.8259 54.2093 23.7622C54.0941 23.707 53.9738 23.663 53.8502 23.6308C53.7339 23.6024 53.6318 23.5731 53.5449 23.5438C53.5049 23.5335 53.4699 23.5095 53.4459 23.476C53.4219 23.4425 53.4104 23.4016 53.4135 23.3605C53.4148 23.3248 53.4232 23.2897 53.4381 23.2573C53.453 23.2248 53.4742 23.1957 53.5004 23.1714C53.5704 23.1251 53.7197 23.0438 53.9466 22.9266C54.1734 22.8094 54.4192 22.6884 54.6725 22.5599C54.9258 22.4313 55.1649 22.3179 55.3804 22.2187C55.5092 22.1486 55.6478 22.0986 55.7916 22.0703C55.8214 22.0687 55.8512 22.0742 55.8785 22.0864C55.9057 22.0986 55.9297 22.117 55.9485 22.1402C55.9485 22.2215 55.9485 22.3 55.958 22.3765C55.9674 22.4531 55.9665 22.5296 55.9665 22.6081ZM56.1234 17.9766C56.126 18.1025 56.1034 18.2276 56.057 18.3447C56.0105 18.4617 55.9412 18.5683 55.853 18.6581C55.7668 18.7499 55.6623 18.8226 55.5462 18.8714C55.4301 18.9203 55.305 18.9442 55.1791 18.9417C54.9358 18.9341 54.7046 18.8341 54.5325 18.662C54.3604 18.4899 54.2604 18.2587 54.2528 18.0154C54.2468 17.7623 54.3409 17.5171 54.5146 17.333C54.5984 17.2414 54.7008 17.1687 54.8149 17.1198C54.929 17.0709 55.0522 17.0469 55.1763 17.0494C55.3004 17.0461 55.424 17.0677 55.5397 17.1128C55.6555 17.1579 55.761 17.2257 55.8502 17.3122C55.9394 17.3974 56.0098 17.5004 56.0569 17.6146C56.1039 17.7287 56.1266 17.8514 56.1234 17.9747V17.9766Z" fill="black"/>
<path d="M68.2939 28.9381C68.2854 28.9914 68.2738 29.0441 68.2589 29.096C68.1735 29.4571 67.9629 29.7762 67.6644 29.9968C67.3679 30.2214 67.0052 30.3411 66.6332 30.337C66.2482 30.337 65.9451 30.2148 65.7239 29.9703C65.4968 29.7153 65.3346 29.4092 65.2513 29.078C65.1113 29.2654 64.9498 29.4357 64.7702 29.5856C64.5719 29.7536 64.3583 29.9026 64.1322 30.0308C63.9034 30.1631 63.6602 30.2687 63.4073 30.3455C63.1723 30.4194 62.9276 30.4579 62.6813 30.4599C62.0871 30.4599 61.6703 30.2879 61.4309 29.9438C61.1914 29.5998 61.072 29.1656 61.0726 28.6413C61.0712 28.3912 61.1406 28.1457 61.273 27.9334C61.4109 27.713 61.5821 27.5153 61.7806 27.3474C61.9842 27.1725 62.206 27.0201 62.4422 26.8927C62.6599 26.7741 62.8846 26.669 63.1152 26.578C63.5235 26.4267 63.8937 26.2957 64.2258 26.1848C64.5579 26.0739 64.9337 25.9658 65.3534 25.8606V24.5146C65.3534 24.025 65.263 23.6315 65.0821 23.3341C64.9013 23.0366 64.5491 22.8879 64.0254 22.8879C63.7344 22.8746 63.445 22.9378 63.1861 23.0713C62.9914 23.181 62.8218 23.33 62.688 23.5089C62.5754 23.6591 62.4897 23.8276 62.4346 24.007C62.3874 24.1706 62.3524 24.2906 62.3297 24.3747C62.2649 24.5697 62.1351 24.7366 61.9621 24.8473C61.7827 24.9722 61.569 25.0382 61.3505 25.0364C61.2984 25.0435 61.2455 25.0302 61.2031 24.9991C61.1606 24.9681 61.1318 24.9218 61.1227 24.87C61.1004 24.7694 61.0886 24.6668 61.0877 24.5638C61.0877 24.284 61.2043 23.9957 61.4375 23.6989C61.6862 23.3861 61.9744 23.1069 62.2948 22.8681C62.6341 22.6141 63.0048 22.405 63.3978 22.2461C63.7398 22.0947 64.1081 22.0115 64.4819 22.0013C64.5845 22.003 64.6868 22.0115 64.7882 22.0269C64.9111 22.0448 65.0358 22.0656 65.1663 22.0883C65.29 22.1109 65.4124 22.1403 65.533 22.1762C65.6303 22.2032 65.7251 22.2383 65.8166 22.2811C66.2016 22.4796 66.4407 22.7389 66.534 23.059C66.6297 23.4078 66.6762 23.7683 66.672 24.1299C66.672 24.571 66.666 25.0401 66.654 25.5373C66.642 26.0345 66.6364 26.5036 66.637 26.9447C66.637 27.0496 66.637 27.2046 66.6285 27.4079C66.62 27.6111 66.6219 27.8219 66.6285 28.0374C66.6351 28.2529 66.6455 28.457 66.6635 28.6498C66.6654 28.7863 66.6977 28.9206 66.758 29.0431C66.8032 29.1241 66.8786 29.1839 66.9678 29.2094C67.0595 29.2385 67.1552 29.2532 67.2514 29.2529C67.3597 29.2574 67.4675 29.2363 67.5661 29.1914C67.6421 29.1545 67.7127 29.1075 67.776 29.0516C67.8346 28.9996 67.8865 28.9504 67.9338 28.9032C67.976 28.8589 68.0308 28.8285 68.0907 28.8162C68.2262 28.7841 68.2939 28.8247 68.2939 28.9381ZM65.3487 26.6886C65.3444 26.6153 65.3356 26.5424 65.3222 26.4702C65.2173 26.4939 65.0954 26.525 64.9555 26.5647C64.8156 26.6044 64.6719 26.6527 64.5264 26.7046C64.3808 26.7566 64.2428 26.8096 64.1076 26.8625C63.9725 26.9154 63.8534 26.957 63.7485 26.9939C63.4328 27.1108 63.14 27.2823 62.8836 27.5005C62.7555 27.6065 62.6534 27.7404 62.5851 27.8919C62.5168 28.0435 62.4841 28.2086 62.4895 28.3748C62.4773 28.6604 62.5571 28.9424 62.7173 29.1792C62.8685 29.389 63.1306 29.4939 63.5037 29.4939C63.7621 29.4905 64.0163 29.4277 64.2466 29.3105C64.4792 29.2011 64.6897 29.0499 64.8676 28.8644C64.984 28.7407 65.0841 28.6025 65.1653 28.4532C65.2554 28.3128 65.315 28.155 65.3402 27.9901C65.3386 27.9348 65.3414 27.8795 65.3487 27.8247C65.3532 27.8045 65.356 27.7839 65.3572 27.7633V26.9939C65.3566 26.8804 65.3537 26.7787 65.3487 26.6886Z" fill="black"/>
<path d="M78.5756 23.5354C78.5758 23.6646 78.5521 23.7928 78.5057 23.9134C78.4639 24.0298 78.3877 24.1306 78.2873 24.2027C78.1754 24.2756 78.0423 24.3088 77.9093 24.2972C77.7173 24.2746 77.5356 24.1986 77.3847 24.0779C77.338 24.0489 77.2977 24.0107 77.2662 23.9657C77.2347 23.9207 77.2126 23.8698 77.2013 23.8161C77.172 23.6998 77.1399 23.5826 77.1068 23.4664C77.0756 23.3579 77.0284 23.2547 76.9669 23.1601C76.93 23.1132 76.8817 23.0765 76.8266 23.0535C76.7715 23.0305 76.7115 23.022 76.6521 23.0287C76.4128 23.0275 76.1753 23.0721 75.9527 23.1601C75.7403 23.243 75.5403 23.3547 75.3582 23.4919C75.1902 23.6186 75.0478 23.7761 74.9385 23.956C74.839 24.1131 74.7847 24.2946 74.7816 24.4806V28.7292C74.7809 28.8056 74.7872 28.8818 74.8005 28.957C74.8131 29.1293 74.877 29.2939 74.9839 29.4296C75.0808 29.5447 75.204 29.6348 75.343 29.6924C75.4906 29.7528 75.6471 29.7882 75.8062 29.7973C75.9754 29.8086 76.1408 29.8143 76.3043 29.8143C76.4092 29.8143 76.4622 29.9192 76.4622 30.1291C76.4668 30.1611 76.4598 30.1938 76.4424 30.2212C76.4251 30.2485 76.3986 30.2688 76.3676 30.2784C76.3079 30.2948 76.2462 30.3033 76.1843 30.3039C75.8946 30.3042 75.6053 30.284 75.3185 30.2434C75.0317 30.2021 74.7424 30.1815 74.4527 30.182C74.1253 30.1817 73.7982 30.2022 73.4735 30.2434C73.1486 30.2838 72.8216 30.304 72.4942 30.3039C72.4075 30.3008 72.3219 30.2833 72.2409 30.2519C72.1952 30.2358 72.156 30.2052 72.1292 30.1647C72.1025 30.1243 72.0896 30.0762 72.0926 30.0279C72.0956 29.9795 72.1143 29.9334 72.1458 29.8965C72.1774 29.8597 72.22 29.8342 72.2674 29.8238C72.3836 29.7945 72.5122 29.7652 72.6521 29.7358C72.795 29.7055 72.933 29.6556 73.0623 29.5875C73.1336 29.5454 73.1939 29.4869 73.2381 29.4169C73.2824 29.3469 73.3092 29.2673 73.3165 29.1848C73.3628 28.9541 73.3918 28.7203 73.4035 28.4854C73.4148 28.2528 73.4215 28.0194 73.4215 27.7859C73.4215 27.3316 73.4183 26.9119 73.412 26.5269C73.4057 26.1419 73.4016 25.7232 73.3997 25.2707C73.3997 25.1195 73.3997 24.9626 73.3912 24.7981C73.3872 24.6422 73.3552 24.4882 73.2967 24.3435C73.2611 24.2194 73.1877 24.1094 73.0869 24.0288C73.0012 23.9632 72.9105 23.9044 72.8156 23.853C72.7286 23.8066 72.6464 23.7584 72.5708 23.7131C72.5339 23.691 72.5029 23.6604 72.4802 23.6239C72.4575 23.5874 72.4439 23.5461 72.4404 23.5032C72.4637 23.444 72.5068 23.3946 72.5623 23.3633C72.6209 23.3284 72.6729 23.2991 72.7201 23.2754C72.8364 23.2178 72.9498 23.1592 73.0604 23.1006C73.171 23.042 73.2854 22.9786 73.4016 22.9115C73.5006 22.8554 73.5953 22.7923 73.6852 22.7225L73.9999 22.4777C74.0986 22.3949 74.2018 22.3176 74.309 22.2461C74.3948 22.1894 74.4913 22.1508 74.5926 22.1327C74.6068 22.1268 74.6223 22.1246 74.6376 22.1261C74.6529 22.1275 74.6676 22.1327 74.6805 22.1412C74.7023 22.1579 74.7257 22.1725 74.7504 22.1847C74.7785 22.2515 74.796 22.3223 74.8024 22.3945C74.8147 22.499 74.8207 22.6041 74.8204 22.7093V23.2518C74.8317 23.2055 74.9149 23.1233 75.0652 23.007C75.2479 22.8702 75.4406 22.7473 75.6417 22.6393C75.8887 22.5053 76.146 22.3912 76.4111 22.2981C76.6804 22.2013 76.9643 22.1511 77.2505 22.1497C77.4706 22.1418 77.6894 22.1869 77.8885 22.2811C78.0477 22.3609 78.1879 22.4741 78.2996 22.6129C78.4031 22.7445 78.4775 22.8965 78.518 23.059C78.5566 23.2148 78.576 23.3748 78.5756 23.5354Z" fill="black"/>
<path d="M3.35217 33.1688C3.51734 33.1665 3.68215 33.1849 3.84272 33.2236C4.00817 33.2684 4.17126 33.3214 4.33139 33.3824V33.0365H4.48262V34.7482H4.33139V33.7615C4.07679 33.5071 3.73787 33.3548 3.37863 33.3333H3.2964C3.0953 33.3316 2.89903 33.3949 2.73684 33.5138C2.54057 33.6659 2.38609 33.8652 2.28788 34.0932C2.17196 34.3414 2.08842 34.6035 2.03929 34.873C1.98404 35.1735 1.95244 35.4778 1.94477 35.7832C1.95501 35.8381 1.95944 35.8938 1.958 35.9496C1.96151 36.3725 1.99881 36.7945 2.06954 37.2114C2.12463 37.5419 2.2625 37.8531 2.4703 38.116C2.66816 38.368 2.95581 38.5082 3.33326 38.5366C3.38158 38.5361 3.42988 38.5386 3.47788 38.5442L3.6017 38.5574C4.01658 38.5555 4.41778 38.4087 4.73593 38.1424V38.3854C4.36264 38.5856 3.94589 38.6911 3.5223 38.6926C3.16929 38.6938 2.82047 38.616 2.50149 38.4648C2.18787 38.3199 1.90832 38.1106 1.68106 37.8504C1.44805 37.5922 1.26532 37.2928 1.1423 36.9676C0.917184 36.364 0.898117 35.703 1.08807 35.0874C1.27803 34.4719 1.66632 33.9366 2.19241 33.5649C2.52727 33.3133 2.93338 33.1746 3.35217 33.1688Z" fill="black"/>
<path d="M6.31642 36.4467V36.701C6.54742 36.5474 6.81979 36.4679 7.09715 36.4732C7.321 36.4834 7.53997 36.5421 7.73894 36.6452C7.83023 36.6855 7.90761 36.7519 7.96141 36.8359C8.01521 36.92 8.04303 37.018 8.0414 37.1178V38.2142C8.0414 38.4033 8.0896 38.512 8.18696 38.5261C8.29573 38.5061 8.39757 38.4586 8.48281 38.3881L8.56598 38.4571C8.35691 38.6092 8.10613 38.6934 7.84764 38.6982C7.75228 38.7076 7.65628 38.6883 7.57204 38.6426C7.48779 38.5969 7.41917 38.5271 7.37504 38.442C7.29785 38.5312 7.20233 38.6027 7.095 38.6517C6.98768 38.7006 6.87106 38.7258 6.7531 38.7256C6.52555 38.7278 6.30503 38.6468 6.13305 38.4978C6.05236 38.435 5.98732 38.3543 5.94304 38.2622C5.89876 38.17 5.87645 38.0688 5.87785 37.9666V37.9184C5.88018 37.8145 5.90923 37.713 5.96221 37.6236C6.01519 37.5342 6.0903 37.4599 6.18031 37.408C6.37538 37.2959 6.59716 37.2387 6.8221 37.2426C7.00387 37.2404 7.18196 37.2938 7.3325 37.3957V36.9874C7.3325 36.7567 7.24838 36.6348 7.07825 36.6216C7.03935 36.6169 7.00022 36.6143 6.96104 36.614C6.81964 36.6151 6.68104 36.6535 6.55933 36.7256C6.39487 36.8201 6.31169 36.9363 6.31169 37.0696V37.1452H6.2011V36.4496L6.31642 36.4467ZM7.33723 38.2123V37.7917C7.34188 37.6766 7.30308 37.5639 7.22853 37.476C7.18488 37.4331 7.13272 37.3999 7.07541 37.3784C7.0181 37.3569 6.95692 37.3476 6.89582 37.3513C6.6945 37.3513 6.58674 37.5346 6.57257 37.9033V37.9363C6.56813 38.0935 6.6005 38.2495 6.66709 38.3919C6.69005 38.4522 6.73064 38.5042 6.78358 38.5412C6.83652 38.5781 6.89934 38.5982 6.96388 38.5989C7.01544 38.5981 7.0662 38.5861 7.11258 38.5635C7.15896 38.541 7.19983 38.5085 7.23231 38.4685C7.29688 38.3985 7.33412 38.3075 7.33723 38.2123Z" fill="black"/>
<path d="M12.1812 37.0129L12.2578 36.8881C12.4682 36.6109 12.7203 36.4726 13.0139 36.4732C13.2565 36.4732 13.4358 36.5516 13.5517 36.7085C13.6741 36.889 13.7347 37.1042 13.7247 37.322V38.5838H14.0896V38.6925H12.6718V38.581H13.0234V37.3985C13.0274 37.2399 13.0131 37.0813 12.9808 36.9259C12.9718 36.8751 12.9459 36.8288 12.9073 36.7945C12.8687 36.7602 12.8197 36.7399 12.7682 36.7369H12.7256C12.6532 36.7404 12.5831 36.7634 12.5227 36.8035C12.4623 36.8436 12.4138 36.8993 12.3825 36.9647C12.2765 37.1295 12.221 37.3217 12.2228 37.5176V38.5781H12.5876V38.6925H11.1699V38.581H11.5073V37.2114C11.5073 36.9411 11.4317 36.7889 11.2785 36.7568C11.2613 36.752 11.2435 36.7495 11.2256 36.7492C11.0996 36.7492 10.9912 36.8321 10.9005 36.9978C10.7961 37.1833 10.7417 37.3927 10.7426 37.6055V38.5838H11.1009V38.6925H9.68306V38.581H10.0347V36.6736H9.68306V36.5488C9.74324 36.5476 9.80339 36.5524 9.86265 36.563C10.1573 36.5563 10.4507 36.5218 10.7388 36.46V37.0129L10.788 36.9184C10.9903 36.6241 11.2423 36.477 11.5441 36.477C11.6939 36.4749 11.839 36.5292 11.9506 36.6292C12.0707 36.7255 12.1525 36.8616 12.1812 37.0129Z" fill="black"/>
<path d="M16.4517 38.5839H16.8165V38.6926H15.3987V38.581H15.7579V36.6888H15.3987V36.563C15.4571 36.5618 15.5154 36.5669 15.5726 36.5782C15.867 36.5664 16.16 36.5314 16.4488 36.4732L16.4517 38.5839ZM16.0301 36.5356L15.8581 35.5016H16.2106L16.0301 36.5356Z" fill="black"/>
<path d="M18.2599 38.5082L18.2334 38.4949V38.7511H18.1219V37.8598H18.2334V37.9543C18.2308 38.0403 18.2463 38.1258 18.2788 38.2055C18.3114 38.2851 18.3603 38.357 18.4224 38.4165C18.5328 38.538 18.6859 38.6122 18.8497 38.6235C19.0576 38.5819 19.1616 38.5016 19.1616 38.3825C19.1643 38.3192 19.1511 38.2563 19.1232 38.1995C19.0953 38.1427 19.0535 38.0938 19.0018 38.0573C18.8916 37.9798 18.7192 37.8721 18.4848 37.7341C18.3901 37.6762 18.3118 37.595 18.2575 37.4981C18.2032 37.4013 18.1747 37.2921 18.1748 37.1811C18.178 37.0815 18.2017 36.9837 18.2443 36.8936C18.2869 36.8035 18.3475 36.7232 18.4224 36.6575C18.5713 36.5279 18.764 36.4603 18.9612 36.4684H19.0557C19.2102 36.497 19.359 36.5507 19.4962 36.6272L19.5519 36.6556V36.4278H19.6635V37.2218H19.5519L19.5387 37.0478C19.536 36.9796 19.5175 36.913 19.4847 36.8531C19.4519 36.7933 19.4057 36.7418 19.3497 36.7028C19.2475 36.635 19.1274 36.5991 19.0047 36.5998H18.964C18.889 36.5974 18.8156 36.6219 18.757 36.6688C18.7058 36.7122 18.6735 36.774 18.6672 36.8408C18.6865 36.9264 18.7322 37.0037 18.7977 37.062C18.8534 37.1194 18.917 37.1684 18.9867 37.2076C19.0463 37.2397 19.1427 37.2898 19.2769 37.3579C19.6039 37.5059 19.7674 37.7155 19.7674 37.9864C19.7667 38.1176 19.7255 38.2454 19.6493 38.3522C19.569 38.47 19.46 38.5653 19.3327 38.6292C19.2069 38.6963 19.0668 38.732 18.9243 38.7331C18.6843 38.732 18.4512 38.653 18.2599 38.5082Z" fill="black"/>
<path d="M21.31 36.4467V36.701C21.5407 36.5475 21.8128 36.468 22.0898 36.4732C22.3137 36.4833 22.5327 36.542 22.7316 36.6452C22.8231 36.6854 22.9007 36.7517 22.9546 36.8357C23.0086 36.9198 23.0366 37.0179 23.035 37.1178V38.2142C23.035 38.4077 23.0832 38.5117 23.1796 38.5261C23.2887 38.5062 23.3909 38.4587 23.4764 38.3881L23.5587 38.4571C23.35 38.6093 23.0995 38.6935 22.8412 38.6982C22.6163 38.6982 22.4603 38.6128 22.3734 38.442C22.2961 38.5311 22.2006 38.6026 22.0933 38.6515C21.986 38.7004 21.8694 38.7257 21.7514 38.7256C21.5239 38.7278 21.3034 38.6468 21.1314 38.4978C21.0505 38.4351 20.9853 38.3545 20.9409 38.2623C20.8964 38.1701 20.874 38.0689 20.8752 37.9666V37.9184C20.8776 37.8144 20.9067 37.7127 20.9599 37.6233C21.013 37.5339 21.0884 37.4597 21.1787 37.408C21.3737 37.2959 21.5955 37.2387 21.8204 37.2426C22.0022 37.2404 22.1803 37.2938 22.3308 37.3957V36.9874C22.3308 36.7567 22.2461 36.6348 22.0766 36.6216C22.0374 36.6169 21.9979 36.6143 21.9584 36.614C21.8174 36.6152 21.6791 36.6537 21.5577 36.7256C21.3926 36.822 21.31 36.9366 21.31 37.0696V37.1452H21.1985V36.4496L21.31 36.4467ZM22.3308 38.2123V37.7917C22.3351 37.6765 22.296 37.5638 22.2212 37.476C22.1778 37.4331 22.1258 37.3997 22.0686 37.3782C22.0115 37.3567 21.9504 37.3475 21.8894 37.3513C21.6872 37.3513 21.5794 37.5346 21.5662 37.9033V37.9363C21.5622 38.0935 21.5945 38.2494 21.6607 38.3919C21.6838 38.4522 21.7244 38.5041 21.7773 38.541C21.8302 38.5779 21.893 38.5981 21.9575 38.5989C22.0091 38.5982 22.0598 38.5861 22.1062 38.5636C22.1526 38.5411 22.1935 38.5086 22.2259 38.4685C22.2904 38.3984 22.3276 38.3075 22.3308 38.2123Z" fill="black"/>
<path d="M25.76 37.0394C25.949 36.6708 26.1673 36.4864 26.415 36.4864C26.4705 36.4846 26.526 36.4894 26.5804 36.5006V36.3352H26.6844V37.3919H26.5804L26.5672 37.253C26.5672 37.0009 26.4934 36.8585 26.346 36.8258C26.3124 36.8167 26.2778 36.812 26.243 36.8116C26.1774 36.8157 26.1141 36.8372 26.0595 36.8737C26.0049 36.9102 25.9609 36.9605 25.932 37.0195C25.8174 37.1982 25.7576 37.4065 25.76 37.6188V38.5838H26.1324V38.6925H24.69V38.581H25.0558V36.6604H24.69V36.529C24.8006 36.529 24.879 36.529 24.9178 36.5356C25.2002 36.5171 25.4814 36.4827 25.76 36.4326V37.0394Z" fill="black"/>
<path d="M29.0862 38.5839H29.4519V38.6926H28.0341V38.581H28.3914V36.6888H28.0332V36.563C28.0912 36.5618 28.1492 36.5669 28.2062 36.5782C28.5006 36.5664 28.7935 36.5314 29.0824 36.4732L29.0862 38.5839ZM28.6655 36.5356L28.4935 35.5016H28.8451L28.6655 36.5356Z" fill="black"/>
<path d="M31.1777 36.4467V36.701C31.4084 36.5475 31.6805 36.468 31.9575 36.4732C32.1814 36.4833 32.4004 36.542 32.5993 36.6452C32.6908 36.6854 32.7684 36.7517 32.8223 36.8357C32.8763 36.9198 32.9043 37.0179 32.9027 37.1178V38.2142C32.9027 38.4077 32.9509 38.5117 33.0473 38.5261C33.1564 38.5062 33.2586 38.4587 33.3441 38.3881L33.4264 38.4571C33.2177 38.6093 32.9672 38.6935 32.709 38.6982C32.484 38.6982 32.328 38.6128 32.2411 38.442C32.1638 38.5311 32.0683 38.6026 31.961 38.6515C31.8537 38.7004 31.7371 38.7257 31.6191 38.7256C31.3916 38.7278 31.1711 38.6468 30.9991 38.4978C30.9182 38.4351 30.853 38.3545 30.8086 38.2623C30.7641 38.1701 30.7417 38.0689 30.7429 37.9666V37.9184C30.7453 37.8144 30.7744 37.7127 30.8276 37.6233C30.8808 37.5339 30.9561 37.4597 31.0464 37.408C31.2414 37.2959 31.4632 37.2387 31.6881 37.2426C31.8699 37.2404 32.048 37.2938 32.1986 37.3957V36.9874C32.1986 36.7567 32.1138 36.6348 31.9443 36.6216C31.9051 36.6169 31.8656 36.6143 31.8261 36.614C31.6851 36.6152 31.5468 36.6537 31.4254 36.7256C31.2603 36.822 31.1777 36.9366 31.1777 37.0696V37.1452H31.0662V36.4496L31.1777 36.4467ZM32.1986 38.2123V37.7917C32.2028 37.6765 32.1637 37.5638 32.0889 37.476C32.0455 37.4331 31.9935 37.3997 31.9363 37.3782C31.8792 37.3567 31.8181 37.3475 31.7571 37.3513C31.5549 37.3513 31.4471 37.5346 31.4339 37.9033V37.9363C31.4299 38.0935 31.4622 38.2494 31.5284 38.3919C31.5515 38.4522 31.5921 38.5041 31.645 38.541C31.6979 38.5779 31.7607 38.5981 31.8252 38.5989C31.8768 38.5982 31.9276 38.5861 31.9739 38.5636C32.0203 38.5411 32.0612 38.5086 32.0936 38.4685C32.1581 38.3984 32.1953 38.3075 32.1986 38.2123Z" fill="black"/>
<path d="M37.1816 36.8967C37.1801 36.753 37.2213 36.6121 37.3001 36.4919C37.3788 36.3717 37.4915 36.2776 37.6238 36.2216C37.7562 36.1655 37.9022 36.1501 38.0433 36.1772C38.1844 36.2043 38.3143 36.2728 38.4164 36.3738C38.5186 36.4749 38.5884 36.6041 38.617 36.7449C38.6456 36.8857 38.6317 37.0319 38.577 37.1648C38.5224 37.2977 38.4295 37.4114 38.3101 37.4914C38.1907 37.5714 38.0502 37.6141 37.9065 37.6141C37.8117 37.6152 37.7175 37.5975 37.6295 37.562C37.5416 37.5264 37.4615 37.4737 37.3941 37.407C37.3266 37.3402 37.2731 37.2608 37.2366 37.1732C37.2002 37.0856 37.1814 36.9916 37.1816 36.8967Z" fill="black"/>
<path d="M43.092 38.5507H43.161V38.6925H41.679V38.5507H41.7347C41.831 38.5523 41.9261 38.5296 42.0113 38.4849C42.0965 38.4401 42.1691 38.3747 42.2225 38.2946C42.3529 38.1104 42.4557 37.9082 42.5278 37.6944L44.1346 33.1688H44.2376L46.2613 38.5507H46.6951V38.6925H44.7906V38.5507H45.3104L44.4767 36.5025H43.1365L42.7083 37.7227C42.6716 37.8427 42.6441 37.9653 42.6261 38.0895C42.6356 38.2139 42.6892 38.3309 42.7773 38.4193C42.8182 38.4614 42.8671 38.4947 42.9212 38.5172C42.9753 38.5398 43.0334 38.5512 43.092 38.5507ZM43.1762 36.3635H44.4314L43.7697 34.6385L43.1762 36.3635Z" fill="black"/>
<path d="M48.8681 33.1688V38.5838H49.2263V38.6925H47.8246V38.581H48.1639V33.3824H47.8246V33.2642C47.8802 33.2621 47.9358 33.2672 47.99 33.2794C48.2855 33.2699 48.5795 33.2328 48.8681 33.1688Z" fill="black"/>
<path d="M52.1159 36.2351H51.4939V38.6926H50.7964V36.2351H50.6319V36.1216H50.7964V34.0866C50.7971 33.8536 50.8809 33.6284 51.0327 33.4515C51.0989 33.3623 51.1854 33.29 51.2849 33.2408C51.3845 33.1915 51.4944 33.1665 51.6055 33.1679C51.6465 33.1677 51.6876 33.1699 51.7284 33.1745C51.7668 33.1838 51.8039 33.1977 51.8389 33.2161C51.8771 33.2391 51.9165 33.26 51.9571 33.2785L51.9911 33.3059V33.098H52.1017V34.3683H51.9911V34.0725C51.9911 33.6348 51.8805 33.3844 51.6593 33.3163C51.6463 33.3119 51.6325 33.3096 51.6187 33.3097C51.6009 33.3092 51.5834 33.3143 51.5686 33.3243C51.5538 33.3343 51.5426 33.3487 51.5365 33.3655C51.5032 33.439 51.4843 33.5183 51.4807 33.5989C51.4901 33.6331 51.4946 33.6684 51.4939 33.7038V36.1216H52.1159V36.2351Z" fill="black"/>
<path d="M53.6839 36.4467V36.701C53.9149 36.5474 54.1872 36.4679 54.4646 36.4732C54.6885 36.4835 54.9074 36.5422 55.1064 36.6452C55.1977 36.6856 55.2751 36.7519 55.3289 36.8359C55.3827 36.92 55.4105 37.018 55.4089 37.1178V38.2143C55.4089 38.4033 55.4571 38.512 55.5544 38.5262C55.6632 38.5062 55.765 38.4587 55.8503 38.3882L55.9334 38.4572C55.724 38.6071 55.4736 38.6892 55.216 38.6925C54.9911 38.6925 54.8335 38.6071 54.7434 38.4364C54.6662 38.5256 54.5707 38.5971 54.4634 38.646C54.3561 38.6949 54.2395 38.7202 54.1215 38.7199C53.8942 38.7224 53.6739 38.6413 53.5024 38.4921C53.4215 38.4294 53.3563 38.3488 53.3119 38.2567C53.2674 38.1645 53.245 38.0633 53.2462 37.9609V37.9127C53.2486 37.8089 53.2776 37.7073 53.3306 37.6179C53.3836 37.5285 53.4587 37.4543 53.5487 37.4023C53.7441 37.2901 53.9662 37.233 54.1914 37.2369C54.3732 37.235 54.5512 37.2884 54.7018 37.3901V36.9817C54.7018 36.7511 54.6168 36.6292 54.4466 36.6159C54.4077 36.6112 54.3686 36.6087 54.3294 36.6084C54.1881 36.6096 54.0495 36.648 53.9277 36.7199C53.7633 36.8144 53.6801 36.9307 53.6801 37.064V37.1396H53.5695V36.4439L53.6839 36.4467ZM54.7056 38.2124V37.7918C54.7099 37.6765 54.6708 37.5638 54.596 37.4761C54.5525 37.4332 54.5005 37.3999 54.4434 37.3784C54.3862 37.3569 54.3252 37.3477 54.2642 37.3513C54.0619 37.3513 53.9542 37.5347 53.94 37.9033V37.9364C53.9356 38.0935 53.968 38.2495 54.0345 38.392C54.0575 38.4523 54.0981 38.5043 54.151 38.5412C54.204 38.5781 54.2668 38.5982 54.3313 38.599C54.3829 38.5982 54.4337 38.5861 54.48 38.5635C54.5264 38.541 54.5673 38.5086 54.5998 38.4685C54.6645 38.3985 54.7021 38.3077 54.7056 38.2124Z" fill="black"/>
<path d="M58.2795 38.5839H58.6443V38.6926H57.2265V38.581H57.5857V36.6888H57.2265V36.563C57.2849 36.5618 57.3432 36.5669 57.4004 36.5782C57.6948 36.5664 57.9878 36.5314 58.2766 36.4732L58.2795 38.5839ZM57.8579 36.5356L57.6859 35.5016H58.0384L57.8579 36.5356Z" fill="black"/>
<path d="M60.3703 36.4467V36.701C60.6013 36.5474 60.8737 36.4679 61.151 36.4732C61.3749 36.4833 61.5939 36.542 61.7928 36.6452C61.8841 36.6855 61.9615 36.7519 62.0153 36.8359C62.0691 36.92 62.0969 37.018 62.0953 37.1178V38.2142C62.0953 38.4033 62.1435 38.512 62.2408 38.5261C62.3496 38.5061 62.4514 38.4586 62.5367 38.3881L62.6198 38.4571C62.411 38.6091 62.1606 38.6932 61.9024 38.6982C61.6775 38.6982 61.52 38.6128 61.4298 38.442C61.3527 38.5312 61.2571 38.6027 61.1498 38.6517C61.0425 38.7006 60.9259 38.7258 60.8079 38.7256C60.5806 38.728 60.3603 38.647 60.1888 38.4978C60.1079 38.4351 60.0427 38.3545 59.9983 38.2623C59.9538 38.1701 59.9314 38.0689 59.9327 37.9666V37.9184C59.935 37.8145 59.964 37.713 60.017 37.6236C60.07 37.5342 60.1451 37.4599 60.2351 37.408C60.4305 37.2958 60.6526 37.2386 60.8779 37.2426C61.0596 37.2407 61.2376 37.2941 61.3883 37.3957V36.9874C61.3883 36.7567 61.3032 36.6348 61.1331 36.6216C61.0942 36.6169 61.055 36.6143 61.0158 36.614C60.8745 36.6152 60.7359 36.6537 60.6141 36.7256C60.4497 36.8201 60.3665 36.9363 60.3665 37.0696V37.1452H60.2559V36.4496L60.3703 36.4467ZM61.392 38.2123V37.7917C61.3963 37.6765 61.3572 37.5638 61.2824 37.476C61.2389 37.4332 61.1869 37.3999 61.1298 37.3784C61.0726 37.3569 61.0116 37.3477 60.9506 37.3513C60.7484 37.3513 60.6406 37.5346 60.6264 37.9033V37.9363C60.622 38.0935 60.6544 38.2495 60.7209 38.3919C60.7442 38.4524 60.7851 38.5044 60.8384 38.5411C60.8917 38.5779 60.9549 38.5977 61.0196 38.598C61.0712 38.5972 61.122 38.5851 61.1683 38.5626C61.2147 38.54 61.2556 38.5076 61.2881 38.4675C61.3519 38.3975 61.3888 38.3071 61.392 38.2123Z" fill="black"/>
<path d="M64.856 38.5233C64.9095 38.5249 64.9621 38.5104 65.0073 38.4818C65.0514 38.4574 65.0907 38.4254 65.1235 38.3872C65.1604 38.3457 65.2067 38.2927 65.2615 38.2275L65.3561 38.305C65.2479 38.43 65.1244 38.5409 64.9884 38.6349C64.868 38.7003 64.732 38.7313 64.5952 38.7247C64.3116 38.7247 64.1339 38.651 64.0555 38.5035C63.966 38.3016 63.9218 38.0825 63.926 37.8617C63.9343 37.845 63.9389 37.8266 63.9392 37.8078V36.9449H63.7587V36.8277H63.9392V34.7227H64.6226V36.8267H65.2445V36.9439H64.6226V38.1859C64.6226 38.4118 64.6944 38.5243 64.8372 38.5243L64.856 38.5233Z" fill="black"/>
<path d="M66.8835 36.4467V36.701C67.1142 36.5475 67.3863 36.468 67.6633 36.4732C67.8872 36.4833 68.1062 36.542 68.3051 36.6452C68.3966 36.6854 68.4742 36.7517 68.5281 36.8357C68.5821 36.9198 68.6101 37.0179 68.6085 37.1178V38.2142C68.6085 38.4077 68.6567 38.5117 68.7531 38.5261C68.8622 38.5062 68.9644 38.4587 69.0499 38.3881L69.1322 38.4571C68.9235 38.6093 68.673 38.6935 68.4148 38.6982C68.1898 38.6982 68.0323 38.6128 67.9422 38.442C67.8649 38.5311 67.7694 38.6026 67.662 38.6515C67.5547 38.7004 67.4382 38.7257 67.3202 38.7256C67.0926 38.728 66.8721 38.647 66.7002 38.4978C66.6193 38.4351 66.5541 38.3545 66.5096 38.2623C66.4652 38.1701 66.4427 38.0689 66.444 37.9666V37.9184C66.4464 37.8144 66.4755 37.7127 66.5287 37.6233C66.5818 37.5339 66.6572 37.4597 66.7474 37.408C66.9425 37.2958 67.1643 37.2387 67.3892 37.2426C67.571 37.2406 67.749 37.294 67.8996 37.3957V36.9874C67.8996 36.7567 67.8149 36.6348 67.6454 36.6216C67.6062 36.6169 67.5667 36.6143 67.5272 36.614C67.3861 36.6152 67.2479 36.6537 67.1265 36.7256C66.9614 36.822 66.8788 36.9366 66.8788 37.0696V37.1452H66.7673V36.4496L66.8835 36.4467ZM67.9006 38.2123V37.7917C67.9049 37.6765 67.8657 37.5638 67.7909 37.476C67.7475 37.4331 67.6955 37.3997 67.6384 37.3782C67.5812 37.3567 67.5201 37.3475 67.4592 37.3513C67.2569 37.3513 67.1491 37.5346 67.1359 37.9033V37.9363C67.1319 38.0935 67.1643 38.2494 67.2304 38.3919C67.2539 38.4527 67.2953 38.505 67.3492 38.5418C67.403 38.5786 67.4667 38.5982 67.5319 38.598C67.5835 38.5972 67.6343 38.5851 67.6806 38.5626C67.727 38.54 67.7679 38.5076 67.8004 38.4675C67.8629 38.397 67.8984 38.3066 67.9006 38.2123Z" fill="black"/>
<path d="M71.3334 37.0394C71.5225 36.6708 71.7408 36.4864 71.9885 36.4864C72.044 36.4846 72.0995 36.4894 72.1539 36.5006V36.3352H72.2578V37.3919H72.1539L72.1406 37.253C72.1406 37.0009 72.0669 36.8585 71.9195 36.8258C71.8858 36.8167 71.8512 36.812 71.8164 36.8116C71.7509 36.8157 71.6876 36.8372 71.6329 36.8737C71.5783 36.9102 71.5343 36.9605 71.5055 37.0195C71.3905 37.198 71.3306 37.4065 71.3334 37.6188V38.5838H71.7058V38.6925H70.2635V38.581H70.6293V36.6604H70.2635V36.529C70.3741 36.529 70.4525 36.529 70.4913 36.5356C70.7737 36.5171 71.0549 36.4827 71.3334 36.4326V37.0394Z" fill="black"/>
<path d="M74.6596 38.5839H75.0254V38.6926H73.6076V38.581H73.9658V36.6888H73.6076V36.563C73.6656 36.5618 73.7236 36.5669 73.7806 36.5782C74.075 36.5664 74.3679 36.5314 74.6568 36.4732L74.6596 38.5839ZM74.239 36.5356L74.067 35.5016H74.4224L74.239 36.5356Z" fill="black"/>
<path d="M76.7514 36.4467V36.701C76.9821 36.5475 77.2541 36.468 77.5312 36.4732C77.7551 36.4833 77.9741 36.542 78.173 36.6452C78.2644 36.6854 78.342 36.7517 78.396 36.8357C78.45 36.9198 78.4779 37.0179 78.4764 37.1178V38.2142C78.4764 38.4077 78.5246 38.5117 78.621 38.5261C78.7301 38.5062 78.8322 38.4587 78.9178 38.3881L79 38.4571C78.7914 38.6093 78.5409 38.6935 78.2826 38.6982C78.0577 38.6982 77.9001 38.6128 77.81 38.442C77.7328 38.5311 77.6372 38.6026 77.5299 38.6515C77.4226 38.7004 77.306 38.7257 77.1881 38.7256C76.9605 38.7278 76.74 38.6468 76.568 38.4978C76.4872 38.4351 76.422 38.3545 76.3775 38.2623C76.3331 38.1701 76.3106 38.0689 76.3119 37.9666V37.9184C76.3142 37.8144 76.3434 37.7127 76.3965 37.6233C76.4497 37.5339 76.5251 37.4597 76.6153 37.408C76.8104 37.2959 77.0321 37.2387 77.2571 37.2426C77.4388 37.2406 77.6169 37.294 77.7675 37.3957V36.9874C77.7675 36.7567 77.6827 36.6348 77.5132 36.6216C77.474 36.6169 77.4346 36.6143 77.3951 36.614C77.254 36.6152 77.1157 36.6537 76.9943 36.7256C76.8292 36.822 76.7467 36.9366 76.7467 37.0696V37.1452H76.6351V36.4496L76.7514 36.4467ZM77.7722 38.2123V37.7917C77.7765 37.6765 77.7374 37.5638 77.6626 37.476C77.6192 37.4331 77.5672 37.3997 77.51 37.3782C77.4528 37.3567 77.3918 37.3475 77.3308 37.3513C77.1285 37.3513 77.0208 37.5346 77.0076 37.9033V37.9363C77.0036 38.0935 77.0359 38.2494 77.1021 38.3919C77.1254 38.4521 77.1662 38.504 77.2193 38.5407C77.2724 38.5775 77.3353 38.5974 77.3998 38.598C77.4514 38.5973 77.5022 38.5852 77.5486 38.5627C77.5949 38.5401 77.6358 38.5076 77.6682 38.4675C77.7325 38.3978 77.7694 38.3072 77.7722 38.2123Z" fill="black"/>
</svg>
